<svg width="115" height="116" viewBox="0 0 115 116" fill="none" xmlns="http://www.w3.org/2000/svg">
<circle cx="57.5" cy="58" r="57" stroke="#E8E7EA"/>
<g clip-path="url(#clip0_757_7288)">
<path d="M80.4999 76.4159C80.4957 77.0199 80.254 77.5981 79.8271 78.0254C79.4002 78.4527 78.8223 78.695 78.2183 78.6998H36.7815C36.1762 78.6992 35.5958 78.4583 35.168 78.0301C34.7402 77.6018 34.4999 77.0212 34.4999 76.4159V74.0998H75.8999V47.1898L57.4999 63.7498L34.4999 43.0498V39.5998C34.4999 38.9898 34.7422 38.4048 35.1736 37.9735C35.6049 37.5421 36.1899 37.2998 36.7999 37.2998H78.1999C78.8099 37.2998 79.3949 37.5421 79.8263 37.9735C80.2576 38.4048 80.4999 38.9898 80.4999 39.5998V76.4159ZM40.0981 41.8998L57.4999 57.5628L74.9017 41.8998H40.0981ZM29.8999 64.8998H48.2999V69.4998H29.8999V64.8998ZM29.8999 53.3998H41.3999V57.9998H29.8999V53.3998Z" fill="#09121F"/>
</g>
<defs>
<clipPath id="clip0_757_7288">
<rect width="55.2" height="55.2" fill="white" transform="translate(29.8999 30.3999)"/>
</clipPath>
</defs>
</svg>
