<svg width="115" height="116" viewBox="0 0 115 116" fill="none" xmlns="http://www.w3.org/2000/svg">
<path d="M45.8621 41.8999C45.8615 43.1199 45.3763 44.2897 44.5132 45.1519C43.6501 46.0142 42.4798 46.4982 41.2598 46.4976C40.0398 46.497 38.87 46.0118 38.0078 45.1487C37.1456 44.2856 36.6615 43.1153 36.6621 41.8953C36.6627 40.6753 37.1479 39.5055 38.011 38.6433C38.8741 37.7811 40.0444 37.297 41.2644 37.2976C42.4844 37.2982 43.6542 37.7834 44.5164 38.6465C45.3787 39.5096 45.8627 40.6799 45.8621 41.8999ZM46.0001 49.9039H36.8001V78.6999H46.0001V49.9039ZM60.5361 49.9039H51.3821V78.6999H60.4441V63.5889C60.4441 55.1709 71.4151 54.3889 71.4151 63.5889V78.6999H80.5001V60.4609C80.5001 46.2699 64.2621 46.7989 60.4441 53.7679L60.5361 49.9039Z" fill="black"/>
<circle cx="57.5" cy="58" r="57" stroke="#E8E7EA"/>
</svg>
