<svg width="89" height="146" viewBox="0 0 89 146" fill="none" xmlns="http://www.w3.org/2000/svg">
<path d="M20.5625 83.125C20.5625 85.0833 20 86.7708 18.875 88.1875C17.125 90.3542 14.6875 91.4375 11.5625 91.4375C8.35417 91.4375 5.35417 90.4375 2.5625 88.4375L3.6875 86.4375C6.39583 88.2708 9.0625 89.2083 11.6875 89.25C12.7292 89.25 13.7292 89.0208 14.6875 88.5625C16.9375 87.5208 18.0625 85.7083 18.0625 83.125C18.0625 81.7917 17.6667 80.6042 16.875 79.5625C16 78.4792 14.125 77.2292 11.25 75.8125C9.79167 75.1042 8.72917 74.5625 8.0625 74.1875C5.02083 72.3125 3.5 69.8958 3.5 66.9375C3.5 65.2292 4.02083 63.7083 5.0625 62.375C6.77083 60.3333 9.16667 59.3125 12.25 59.3125C12.7083 59.3125 13.1667 59.3333 13.625 59.375C16.9167 59.7917 19.2917 61.3125 20.75 63.9375L18.625 65.0625C18.5 64.8542 18.375 64.6458 18.25 64.4375C16.8333 62.4792 14.7708 61.5 12.0625 61.5C11.1458 61.5 10.2708 61.6667 9.4375 62C7.14583 62.9167 6 64.5625 6 66.9375C6 68.1875 6.375 69.2917 7.125 70.25C7.95833 71.3333 9.8125 72.5833 12.6875 74C14.1458 74.7083 15.2083 75.2708 15.875 75.6875C19 77.6042 20.5625 80.0833 20.5625 83.125ZM47.5 91.4375C47.0833 91.4375 46.6667 91.4167 46.25 91.375C44.0417 91.0417 42.7708 89.5208 42.4375 86.8125C42.1875 87.1875 41.8958 87.5625 41.5625 87.9375C39.4792 90.2708 36.9583 91.4375 34 91.4375C32.5833 91.4375 31.2917 91.2083 30.125 90.75C26.7083 89.4583 25 86.6042 25 82.1875C25 80.5625 25.4792 79.0625 26.4375 77.6875C28.6042 74.7708 32.3958 73.3125 37.8125 73.3125C39.6458 73.3125 41.1458 73.4167 42.3125 73.625V68.4375C42.3125 67.6042 42.2292 66.8333 42.0625 66.125C41.3125 63.0417 39.2083 61.5 35.75 61.5C33.0833 61.5 30.3125 62.4167 27.4375 64.25L26.3125 62.25C29.3125 60.3333 32.4792 59.3542 35.8125 59.3125C37.2292 59.3125 38.5417 59.5417 39.75 60C43.125 61.3333 44.8125 64.0833 44.8125 68.25V84.5625C44.8125 85.5208 44.875 86.3125 45 86.9375C45.3333 88.6042 46.3333 89.4375 48 89.4375C48.375 89.4375 48.7083 89.4167 49 89.375L49.125 91.3125C48.5 91.3958 47.9583 91.4375 47.5 91.4375ZM34.4375 89.25C35.6042 89.25 36.8125 88.9167 38.0625 88.25C40.8958 86.75 42.3125 84.4167 42.3125 81.25V75.6875C41.0625 75.4792 39.5208 75.375 37.6875 75.375C37.2708 75.375 36.8542 75.375 36.4375 75.375C30.6042 75.6667 27.6875 77.9375 27.6875 82.1875C27.6875 82.5208 27.7083 82.875 27.75 83.25C28.0833 87.25 30.3125 89.25 34.4375 89.25ZM60.1875 91.375C59.6042 91.375 59.0417 91.2917 58.5 91.125C56.375 90.4167 55.3125 88.6667 55.3125 85.875V45.6875H57.8125V85.5625C57.8542 87.9792 58.75 89.2292 60.5 89.3125C61.1667 89.3125 61.9375 89.125 62.8125 88.75L63.5 90.625C62.3333 91.125 61.2292 91.375 60.1875 91.375ZM82 90C80.3333 90.9167 78.75 91.3958 77.25 91.4375C76.3333 91.4375 75.4792 91.2708 74.6875 90.9375C72.1042 89.8542 70.8125 87.3958 70.8125 83.5625V61.9375H65.4375V59.75H70.8125V51.3125H73.3125V59.75H81.25V61.9375H73.3125V82.8125C73.3125 83.2292 73.3333 83.6667 73.375 84.125C73.6667 87.5417 75.125 89.25 77.75 89.25C78.75 89.25 79.8958 88.9167 81.1875 88.25L82 90Z" fill="black"/>
</svg>
